<?xml version="1.0" encoding="iso-8859-1"?>
<!-- Uploaded to: SVG Repo, www.svgrepo.com, Generator: SVG Repo Mixer Tools -->
<svg version="1.1" id="Layer_1" xmlns="http://www.w3.org/2000/svg" xmlns:xlink="http://www.w3.org/1999/xlink" 
	 viewBox="0 0 512 512" xml:space="preserve">
<path style="fill:#707487;" d="M293.926,28.444h-75.852c-20.916,0-37.926,17.01-37.926,37.926v47.407h18.963V75.852
	c0-10.453,8.51-18.963,18.963-18.963h75.852c10.453,0,18.963,8.51,18.963,18.963v37.926h18.963V66.37
	C331.852,45.454,314.842,28.444,293.926,28.444z"/>
<g>
	<rect x="180.148" y="85.333" style="fill:#5B5D6E;" width="18.963" height="28.444"/>
	<rect x="312.889" y="85.333" style="fill:#5B5D6E;" width="18.963" height="28.444"/>
</g>
<path style="fill:#FF5050;" d="M483.556,483.556H28.444C12.735,483.556,0,470.821,0,455.111v-322.37
	c0-15.71,12.735-28.444,28.444-28.444h455.111c15.71,0,28.444,12.735,28.444,28.444v322.37
	C512,470.82,499.264,483.556,483.556,483.556z"/>
<circle style="fill:#E4EAF8;" cx="256" cy="284.444" r="132.741"/>
<circle style="fill:#FFFFFF;" cx="256" cy="284.444" r="113.778"/>
<path style="fill:#FF5050;" d="M312.889,265.481h-37.926v-37.926c0-5.236-4.245-9.481-9.481-9.481h-18.963
	c-5.236,0-9.481,4.245-9.481,9.481v37.926h-37.926c-5.236,0-9.481,4.245-9.481,9.481v18.963c0,5.236,4.245,9.481,9.481,9.481h37.926
	v37.926c0,5.236,4.245,9.481,9.481,9.481h18.963c5.236,0,9.481-4.245,9.481-9.481v-37.926h37.926c5.236,0,9.481-4.245,9.481-9.481
	v-18.963C322.37,269.726,318.125,265.481,312.889,265.481z"/>
<path style="fill:#C84146;" d="M483.556,455.111H28.444C12.735,455.111,0,442.376,0,426.667v28.444
	c0,15.71,12.735,28.444,28.444,28.444h455.111c15.71,0,28.444-12.735,28.444-28.444v-28.444
	C512,442.376,499.264,455.111,483.556,455.111z"/>
</svg>